<svg fill="none" height="51" viewBox="0 0 157 51" width="157" xmlns="http://www.w3.org/2000/svg"><g fill="#b4a6a2"><path d="m38.78 17.7924h-18.3323v5.2918h13.005c-.6268 7.4391-6.9726 10.6601-13.005 10.6601-7.6777 0-14.33684-5.9053-14.33684-14.188.07834-8.0526 6.42414-14.18793 14.41514-14.18793 6.1891 0 9.7929 3.83459 9.7929 3.83459l3.8389-3.83459s-4.8573-5.2917299-13.7885-5.2917299c-11.43808-.07669174-20.134193 9.2796999-20.134193 19.4029599 0 9.8933 8.226043 19.5564 20.369293 19.5564 10.6547 0 18.489-7.1323 18.489-17.7158 0-2.224-.3134-3.5278-.3134-3.5278z"/><path d="m53.7435 13.9579c-7.5209 0-12.9266 5.7519-12.9266 12.424 0 6.8256 5.249 12.6542 13.005 12.6542 7.0509 0 12.7699-5.2918 12.7699-12.5008 0-8.3594-6.6591-12.5774-12.8483-12.5774zm.0784 4.9083c3.6821 0 7.2076 2.9142 7.2076 7.5924 0 4.6015-3.4471 7.5925-7.2076 7.5925-4.0739 0-7.2859-3.221-7.2859-7.6692-.0784-4.2947 3.1337-7.5157 7.2859-7.5157z"/><path d="m81.7904 13.9579c-7.5209 0-12.9266 5.7519-12.9266 12.424 0 6.8256 5.249 12.6542 13.005 12.6542 7.0509 0 12.7699-5.2918 12.7699-12.5008 0-8.3594-6.6592-12.5774-12.8483-12.5774zm.0784 4.9083c3.6821 0 7.2075 2.9142 7.2075 7.5924 0 4.6015-3.4471 7.5925-7.2075 7.5925-4.0739 0-7.286-3.221-7.286-7.6692-.0783-4.2947 3.1338-7.5157 7.286-7.5157z"/><path d="m109.289 13.9579c-6.894 0-12.3 5.9052-12.3 12.5774 0 7.5158 6.267 12.5775 12.222 12.5775 3.682 0 5.562-1.4572 7.05-3.0677v2.4541c0 4.2948-2.663 6.9023-6.737 6.9023-3.917 0-5.876-2.8376-6.581-4.4481l-5.0139 1.994c1.7236 3.6045 5.2489 7.3624 11.5169 7.3624 6.815 0 12.064-4.2181 12.064-13.1143v-22.4707h-5.405v2.1474c-1.567-1.7639-3.839-2.9143-6.816-2.9143zm.47 4.9083c3.369 0 6.816 2.8375 6.816 7.6691 0 4.9083-3.447 7.5925-6.894 7.5925-3.683 0-7.13-2.9143-7.13-7.5925.079-4.8316 3.604-7.6691 7.208-7.6691z"/><path d="m145.484 13.8812c-6.503 0-11.987 5.0617-11.987 12.5008 0 7.8992 6.111 12.5774 12.613 12.5774 5.406 0 8.775-2.9143 10.733-5.5218l-4.465-2.9143c-1.175 1.7639-3.056 3.4512-6.268 3.4512-3.603 0-5.249-1.9173-6.267-3.8346l17.157-6.979-.862-2.0707c-1.723-3.8345-5.562-7.209-10.654-7.209zm.156 4.8316c2.351 0 3.996 1.2271 4.779 2.6842l-11.516 4.6782c-.47-3.6045 3.055-7.3624 6.737-7.3624z"/><path d="m125.271 38.2691h5.641v-36.96539h-5.641z"/></g></svg>