<svg fill="none" height="51" viewBox="0 0 157 51" width="157" xmlns="http://www.w3.org/2000/svg"><path d="m22.0144 44.3278c-2.3503.3835-4.7006.5368-7.2076.8436l-7.52093-21.6271v22.5474c-2.3503.2301-4.46557.5368-6.73753.9203v-41.33683h6.26746l8.5394 23.46763v-23.46763h6.6592zm13.005-23.4677c2.5853 0 6.5025-.1534 8.8528-.1534v6.4422c-2.8987 0-6.3458 0-8.8528.1533v9.5865c3.8388-.2301 7.756-.5368 11.6732-.6902v6.212l-18.254 1.3805v-38.11583h18.254v6.44213h-11.6732zm36.1163-8.6661h-6.8159v29.6797c-2.1936 0-4.4656 0-6.5808.0767v-29.7564h-6.8159v-6.51883h20.2909c-.0783 0-.0783 6.51883-.0783 6.51883zm10.733 8.206h9.0095v6.4421h-9.0095v14.6481h-6.5025v-35.81503h18.4107v6.44213h-11.9082zm22.6413 15.415c3.76.0767 7.521.3835 11.203.5369v6.3654c-5.876-.3835-11.751-.6903-17.7839-.8436v-36.19853h6.5809zm16.765 7.3624c2.116.1534 4.309.2301 6.503.4602v-37.96243h-6.503zm35.333-37.50223-8.383 19.63313 8.383 21.627c-2.507-.3067-4.935-.7669-7.442-1.1504l-4.701-11.9639-4.857 10.9669c-2.351-.3834-4.701-.5368-7.051-.8436l8.461-18.8661-7.678-19.40303h7.051l4.309 10.81353 4.622-10.81353z" fill="#b4a6a2"/></svg>