<svg fill="none" height="51" viewBox="0 0 157 51" width="157" xmlns="http://www.w3.org/2000/svg" xmlns:xlink="http://www.w3.org/1999/xlink"><clipPath id="a"><path d="m0 0h157v51h-157z"/></clipPath><g clip-path="url(#a)"><path d="m33.6876 11.8873c0-.2301-.235-.3068-.3917-.3835-.1567 0-3.5254-.2301-3.5254-.2301s-2.3503-2.30072-2.5854-2.5308c-.235-.23007-.7834-.15338-.9401-.15338 0 0-.5484.15338-1.3318.38346-.7835-2.22406-2.1153-4.21805-4.5439-4.21805h-.2351c-.7051-.9203-1.5668-1.30376-2.2719-1.30376-5.6407 0-8.30442 6.90223-9.16619 10.43003-2.19361.6903-3.76048 1.1504-3.91717 1.1504-1.17515.3835-1.25349.3835-1.41018 1.5339-.15668.997-3.36876 25.3082-3.36876 25.3082l24.9915 4.6015 13.5534-2.8376c-.0783-.0767-4.7789-31.5203-4.8573-31.7503zm-10.1063-2.45417c-.6267.23007-1.3318.38346-2.1152.61357v-.46019c0-1.38045-.2351-2.45413-.5484-3.37444 1.2535.30677 2.1152 1.68722 2.6636 3.22106zm-4.1522-2.8376c.3134.84361.5484 2.07068.5484 3.68117v.2301c-1.3318.3835-2.8987.8436-4.3872 1.3038.8618-3.0677 2.4287-4.67822 3.8388-5.21507zm-1.7235-1.53383c.235 0 .47.07669.7051.23007-1.8019.84361-3.7605 2.91429-4.5439 7.13233-1.1752.3835-2.3503.6902-3.4471 1.0737 1.0184-3.2211 3.2904-8.4361 7.2859-8.4361z" fill="#b4a6a2"/><path d="m33.3742 11.5804c-.1567 0-3.5255-.2301-3.5255-.2301s-2.3503-2.3007-2.5853-2.53078c-.0783-.07669-.235-.15338-.3917-.15338l-1.8802 37.80906 13.5533-2.8376s-4.7789-31.4436-4.7789-31.6737c-.0783-.3068-.235-.3835-.3917-.3835z" fill="#b4a6a2"/><path d="m20.3692 18.8661-1.6452 4.8316s-1.4885-.7669-3.2904-.7669c-2.6637 0-2.742 1.6105-2.742 1.994 0 2.224 5.8757 3.0676 5.8757 8.2827 0 4.0646-2.6636 6.7489-6.1891 6.7489-4.30885 0-6.50247-2.6076-6.50247-2.6076l1.17515-3.6812s2.27196 1.9173 4.15222 1.9173c1.2535 0 1.7235-.997 1.7235-1.6872 0-2.9143-4.85725-3.0677-4.85725-7.8225 0-3.988 2.97705-7.8993 8.85275-7.8993 2.3503.0767 3.4471.6902 3.4471.6902z" fill="#fff"/><path d="m54.292 27.9925c-1.3318-.6902-2.0369-1.3038-2.0369-2.1474 0-1.0737.9401-1.7639 2.507-1.7639 1.7235 0 3.2904.6902 3.2904.6902l1.2535-3.6812s-1.1752-.8436-4.4656-.8436c-4.6223 0-7.9127 2.6076-7.9127 6.2888 0 2.0706 1.4885 3.6812 3.5255 4.8315 1.6452.9203 2.1936 1.5339 2.1936 2.5309s-.7835 1.7639-2.3503 1.7639c-2.272 0-4.3872-1.1504-4.3872-1.1504l-1.2535 3.6045s1.9585 1.3038 5.249 1.3038c4.7789 0 8.226-2.3008 8.226-6.4421 0-2.2241-1.7235-3.8346-3.8388-4.985zm19.0374-7.7459c-2.3503 0-4.2305 1.0737-5.6407 2.7609h-.0783l2.0369-10.43h-5.3274l-5.1706 26.5353h5.3273l1.8019-9.1263c.7051-3.4511 2.507-5.5985 4.2306-5.5985 1.1751 0 1.6452.7669 1.6452 1.9173 0 .6902-.0784 1.6105-.2351 2.3007l-2.0369 10.4301h5.3274l2.1152-10.7368c.2351-1.1504.3917-2.5309.3917-3.3745-.0783-2.9143-1.6452-4.6782-4.3872-4.6782zm16.3738 0c-6.4242 0-10.6547 5.6752-10.6547 11.9639 0 4.0647 2.5853 7.2858 7.3643 7.2858 6.2674 0 10.498-5.5218 10.498-11.964 0-3.7578-2.1937-7.2857-7.2076-7.2857zm-2.5854 15.185c-1.8019 0-2.5853-1.5338-2.5853-3.3744 0-2.991 1.5669-7.8993 4.4656-7.8993 1.8802 0 2.507 1.6105 2.507 3.1444 0 3.221-1.5669 8.1293-4.3873 8.1293zm23.4242-15.185c-3.603 0-5.64 3.0677-5.64 3.0677h-.079l.314-2.7609h-4.701c-.235 1.9173-.6265 4.7549-1.0966 6.9023l-3.6821 19.0962h5.3277l1.488-7.7459h.078s1.097.6903 3.134.6903c6.268 0 10.342-6.2888 10.342-12.5775 0-3.6045-1.567-6.6722-5.485-6.6722zm-5.092 15.2617c-1.41 0-2.193-.7669-2.193-.7669l.861-4.9083c.627-3.2211 2.351-5.4451 4.231-5.4451 1.645 0 2.115 1.4571 2.115 2.8376 0 3.5278-2.037 8.2827-5.014 8.2827zm18.176-22.7775c-1.724 0-3.056 1.3038-3.056 2.991 0 1.5339 1.019 2.6075 2.507 2.6075h.079c1.645 0 3.055-1.0736 3.133-2.9909 0-1.5339-1.018-2.6076-2.663-2.6076zm-7.443 26.3053h5.328l3.603-18.4827h-5.327zm22.485-18.406h-3.682l.156-.8436c.314-1.7639 1.41-3.3745 3.134-3.3745.94 0 1.724.2301 1.724.2301l1.018-4.0646s-.94-.4602-2.899-.4602c-1.88 0-3.76.5369-5.249 1.7639-1.802 1.5339-2.663 3.6812-3.055 5.9053l-.157.8436h-2.507l-.783 3.9113h2.507l-2.821 14.5714h5.328l2.82-14.5714h3.682zm12.77 0s-3.369 8.206-4.858 12.6541h-.078c-.078-1.4571-1.332-12.6541-1.332-12.6541h-5.64l3.212 16.9489c.078.3834 0 .6135-.079.8436-.626 1.1503-1.645 2.3007-2.898 3.1443-1.019.6903-2.116 1.1504-2.977 1.4572l1.488 4.4481c1.097-.2301 3.29-1.0737 5.249-2.8376 2.429-2.2241 4.701-5.6752 6.973-10.3534l6.502-13.6511z" fill="#b4a6a2"/></g></svg>